<svg class="w-7 hover:text-white" id="Layer_1" data-name="Layer 1" xmlns="http://www.w3.org/2000/svg" viewBox="0 0 1000 1000"><defs><style>.cls-1{fill:#161614;}</style></defs><path class="cls-1" d="M500,121c-214.58,0-388.59,174-388.59,388.58,0,171.69,111.35,317.35,265.74,368.74,19.42,3.59,26.56-8.43,26.56-18.7,0-9.26-.37-39.88-.53-72.35-108.11,23.51-130.92-45.84-130.92-45.84-17.68-44.92-43.15-56.86-43.15-56.86-35.25-24.12,2.66-23.63,2.66-23.63,39,2.75,59.57,40,59.57,40,34.66,59.41,90.9,42.23,113.08,32.3,3.49-25.11,13.56-42.25,24.67-52-86.31-9.83-177-43.15-177-192,0-42.42,15.18-77.09,40-104.3-4-9.79-17.34-49.31,3.76-102.84,0,0,32.63-10.44,106.89,39.83a368.75,368.75,0,0,1,194.61,0c74.17-50.27,106.75-39.83,106.75-39.83,21.15,53.53,7.85,93,3.81,102.84,24.92,27.21,40,61.87,40,104.3C747.9,638.55,657,671.41,570.47,681c13.94,12.06,26.36,35.71,26.36,72,0,52-.45,93.84-.45,106.64,0,10.34,7,22.46,26.69,18.64,154.31-51.44,265.52-197,265.52-368.68C888.59,295,714.61,121,500,121"/></svg>