<svg xmlns="http://www.w3.org/2000/svg" width="64" height="64" xml:space="preserve"><path fill-rule="evenodd" clip-rule="evenodd" d="M21.986 40.006a1.993 1.993 0 1 1 0 3.985 1.993 1.993 0 0 1 0-3.985zm-5.841-5.707c-1.261-8.749 4.81-16.862 13.559-18.123s16.863 4.81 18.124 13.559-4.81 16.863-13.559 18.124c-.098.015-.192.015-.289.026l.296-.041a2.002 2.002 0 0 1-.57-3.962l-.003-.007h.008c6.56-.945 11.109-7.028 10.164-13.588-.945-6.561-7.027-11.11-13.588-10.165-6.557.945-11.11 7.028-10.164 13.588 0 .003 0 .005.002.005l-.007.003a2 2 0 0 1-3.962.57l.044.298c-.014-.098-.041-.19-.055-.287zm31.844-21.294a3.006 3.006 0 0 1 3.006-3.004 3 3 0 0 1 2.999 2.958v.094a3 3 0 0 1-2.999 2.958 3.006 3.006 0 0 1-3.006-3.006zM58.661 58.52C55.183 62.034 50.357 64 42.012 64H21.986c-8.345 0-13.17-1.966-16.646-5.48C1.908 55.054 0 50.216 0 42.014V21.988c0-8.205 1.908-13.04 5.34-16.506C8.816 1.967 13.641 0 21.986 0h20.025c8.346 0 13.171 1.967 16.649 5.482.223.223.427.468.633.71.422.366.695.902.695 1.505a2 2 0 0 1-2 2c-.604 0-1.14-.274-1.506-.698l-.026.021c-.206-.245-.399-.499-.627-.728-3.042-3.076-7.533-4.283-14.837-4.283H22.997c-7.302 0-11.784 1.207-14.826 4.283C5.168 11.325 4 15.828 4 23.005v17.997c0 7.18 1.168 11.671 4.171 14.703C11.213 58.78 15.695 60 22.997 60h17.997c7.304 0 11.795-1.22 14.837-4.295 3.003-3.032 4.159-7.523 4.159-14.703V23.006a47.76 47.76 0 0 0-.218-4.78l.009-.002a2.016 2.016 0 0 1 4.009-.411c.003.029 0 .056 0 .085h.005a42.57 42.57 0 0 1 .205 4.09v20.025c0 8.203-1.91 13.041-5.339 16.507z"/></svg>