<?xml version="1.0" standalone="no"?>
<!DOCTYPE svg PUBLIC "-//W3C//DTD SVG 20010904//EN"
 "http://www.w3.org/TR/2001/REC-SVG-20010904/DTD/svg10.dtd">
<svg class="w-11 h-11" version="1.0" xmlns="http://www.w3.org/2000/svg"
  viewBox="0 0 1633.000000 980.000000"
 preserveAspectRatio="xMidYMid meet">

<g transform="translate(0.000000,980.000000) scale(0.100000,-0.100000)"
fill="#000000" stroke="none">
<path d="M8105 7820 c-119 -8 -197 -20 -347 -50 -312 -64 -585 -163 -836 -304
-747 -419 -1269 -1126 -1441 -1951 -46 -222 -61 -392 -57 -665 4 -279 19 -406
76 -637 169 -683 582 -1288 1155 -1693 127 -90 248 -162 410 -245 140 -72 186
-91 345 -147 110 -38 343 -96 415 -103 17 -2 95 -10 175 -18 80 -9 200 -17
268 -18 68 -1 118 -6 110 -10 -13 -8 58 -4 177 12 39 5 88 11 109 14 22 3 48
7 58 11 17 5 18 42 18 900 l0 894 73 102 c41 57 163 229 272 383 109 154 230
325 270 380 39 55 126 177 192 270 66 94 218 307 337 474 119 167 216 307 216
312 0 5 -197 9 -447 9 l-448 -1 -101 -167 c-289 -476 -757 -1232 -763 -1232
-3 0 -17 19 -30 43 -13 23 -53 89 -89 147 -103 167 -155 252 -402 655 -284
465 -316 515 -332 538 -12 16 -41 17 -460 15 l-448 -3 173 -245 c96 -135 227
-320 293 -412 65 -92 171 -240 234 -329 63 -89 240 -338 392 -553 l278 -391 0
-717 0 -717 -37 5 c-21 3 -54 8 -73 11 -19 4 -39 5 -44 4 -13 -3 -177 46 -231
69 -11 5 -33 13 -50 18 -16 5 -29 15 -28 21 2 6 -6 11 -17 11 -11 0 -48 11
-82 25 -34 14 -69 25 -79 25 -9 0 -19 6 -22 13 -2 6 -29 21 -58 31 -54 20
-102 47 -252 144 -163 107 -302 221 -401 331 -17 19 -50 52 -73 75 -33 33
-193 238 -251 323 -65 95 -132 208 -132 223 0 5 -13 28 -29 52 -26 38 -121
268 -121 292 0 6 -11 46 -24 90 -40 134 -64 228 -71 283 -4 29 -11 55 -15 58
-5 3 -6 21 -3 40 4 24 2 35 -7 35 -7 0 -10 7 -6 16 4 9 1 23 -6 32 -10 11 -10
16 -1 19 7 3 10 17 7 36 -9 67 -11 265 -2 345 6 57 5 89 -3 104 -9 16 -8 19 1
13 10 -6 12 3 8 39 -3 27 -2 46 5 46 6 0 7 15 4 38 -7 40 1 85 13 77 9 -6 24
81 16 94 -3 5 1 12 9 15 8 3 14 9 13 13 -3 11 112 356 123 368 5 5 9 18 9 30
0 12 5 26 12 33 9 9 9 12 0 12 -13 0 10 62 26 68 5 1 7 14 4 29 -3 17 -1 24 6
19 17 -10 44 23 36 46 -4 12 -2 18 4 14 5 -3 17 3 27 14 20 22 7 28 -14 8 -8
-7 -6 0 4 15 10 15 26 32 36 38 11 5 19 17 19 26 0 9 8 25 18 36 9 11 11 17 5
13 -20 -11 -15 13 7 41 11 14 20 31 20 37 0 7 32 45 70 86 39 41 70 80 70 86
0 7 23 36 51 65 27 28 48 58 45 65 -3 7 -1 16 4 19 6 4 10 0 10 -7 0 -7 17 6
39 30 21 23 44 42 50 42 6 0 11 7 11 15 0 8 12 22 28 32 15 9 34 25 42 35 9
11 25 21 35 22 11 2 19 8 18 14 -1 5 10 13 24 17 20 5 23 9 14 15 -10 6 -8 10
9 15 13 4 34 19 47 33 14 15 34 27 45 27 12 0 23 7 26 15 5 13 3 13 -14 0 -17
-14 -18 -14 -6 2 7 9 24 19 38 22 14 4 22 10 20 15 -3 5 6 9 21 9 17 0 36 10
49 26 13 14 29 26 37 26 7 0 26 14 42 30 16 17 34 29 39 28 20 -4 56 13 50 23
-3 6 5 7 20 3 20 -5 25 -3 21 8 -4 9 7 21 30 33 19 11 35 24 35 28 0 5 10 7
23 4 12 -3 31 1 41 9 11 8 30 14 43 14 14 0 23 6 23 15 0 8 7 15 15 15 23 0
29 2 44 17 7 8 22 11 32 8 10 -4 19 -2 19 3 0 6 10 8 22 4 14 -3 19 -1 14 6
-9 14 28 25 62 17 20 -4 36 0 55 16 15 11 34 19 42 16 7 -3 19 1 25 9 7 8 22
14 34 14 11 0 71 9 131 21 133 25 345 48 345 37 0 -4 53 -8 118 -8 64 0 146
-5 182 -10 36 -5 104 -10 153 -11 48 -1 90 -6 93 -10 3 -5 10 -7 15 -4 5 4 9
1 9 -4 0 -6 21 -10 48 -10 26 1 65 -4 87 -10 22 -5 65 -17 95 -24 30 -8 85
-29 122 -45 37 -17 84 -34 103 -38 19 -3 38 -10 41 -15 9 -16 37 -10 30 6 -3
8 -3 15 0 15 13 0 104 -43 104 -49 0 -12 69 -41 98 -41 15 0 41 -7 57 -16 17
-9 43 -18 59 -20 16 -2 34 -9 40 -15 8 -9 6 -10 -8 -5 -17 6 -17 5 -5 -11 24
-31 53 -53 79 -60 14 -3 47 -21 74 -40 26 -18 52 -33 56 -33 4 0 10 -9 13 -20
3 -11 9 -20 14 -19 19 5 61 -27 108 -83 28 -33 67 -71 87 -84 20 -13 50 -43
66 -66 37 -53 90 -104 98 -95 4 4 -8 24 -27 46 -19 21 -47 58 -64 81 -63 89
-77 105 -86 102 -5 -1 -14 9 -19 23 -5 14 -14 25 -20 25 -5 0 -10 5 -10 10 0
6 7 10 15 10 8 0 15 -4 15 -9 0 -13 191 -203 198 -196 3 2 -7 14 -21 26 -15
11 -27 25 -27 31 0 15 -145 181 -154 176 -2 -2 -25 18 -52 45 -44 42 -298 236
-313 238 -27 3 -44 10 -73 30 -18 13 -35 27 -38 30 -7 10 -121 66 -150 74 -14
4 -36 16 -49 26 -13 11 -27 19 -32 19 -5 0 -32 11 -61 24 -86 39 -327 113
-412 126 -43 6 -98 18 -122 25 -24 7 -45 11 -47 9 -2 -3 -46 2 -98 11 -52 8
-120 15 -151 15 -31 0 -60 5 -64 11 -3 6 -16 8 -28 5 -11 -4 -64 -9 -116 -12
-52 -3 -101 -7 -108 -9 -7 -3 -23 0 -37 5 -16 6 -34 6 -50 0 -13 -5 -59 -12
-102 -15 -43 -4 -105 -13 -138 -21 -74 -17 -76 -17 -69 -1 3 8 18 14 34 14 16
0 47 5 67 11 141 40 390 57 628 43 178 -11 439 -47 520 -71 224 -69 308 -98
397 -139 26 -11 51 -21 55 -21 12 0 111 -52 161 -84 24 -15 53 -31 65 -37 12
-5 45 -23 72 -39 85 -50 91 -52 55 -19 -22 19 -25 25 -10 16 14 -9 48 -29 75
-46 61 -36 189 -141 181 -148 -3 -4 -16 2 -28 13 l-23 19 20 -23 c11 -13 29
-29 40 -35 18 -9 19 -9 6 6 -25 30 0 18 36 -18 19 -19 40 -35 46 -35 11 1
-132 139 -143 140 -3 0 -28 21 -57 48 -28 26 -112 85 -187 131 -75 47 -134 86
-132 88 4 5 128 -65 214 -120 40 -26 75 -47 78 -47 7 0 60 -41 100 -78 14 -13
43 -35 65 -49 21 -14 39 -32 39 -39 0 -7 13 -20 30 -29 53 -27 279 -261 333
-345 12 -19 32 -39 44 -45 12 -5 24 -19 27 -31 6 -22 36 -42 36 -24 0 16 -126
191 -142 198 -5 2 -8 9 -8 15 0 9 -77 93 -185 202 -23 22 -47 52 -55 67 -7 15
-22 30 -33 34 -25 8 -47 25 -134 110 -40 40 -88 79 -106 89 -17 9 -45 24 -62
32 -16 9 -43 28 -60 43 -28 25 -49 38 -180 112 -43 24 -149 76 -220 107 -37
17 -109 43 -225 81 -157 53 -255 74 -545 121 -106 17 -538 18 -670 1 -133 -17
-319 -55 -429 -87 -49 -14 -91 -24 -93 -21 -6 6 143 52 217 67 205 42 251 50
300 55 30 3 63 6 73 7 9 1 17 4 17 7 0 7 481 3 500 -4 8 -3 42 -5 75 -4 91 2
122 -1 107 -11 -8 -5 15 -8 59 -9 56 0 76 -4 85 -17 9 -12 19 -15 35 -10 13 5
24 2 29 -6 5 -7 23 -12 42 -12 46 1 149 -27 155 -43 3 -8 15 -11 31 -8 28 6
114 -25 126 -45 4 -5 13 -8 20 -5 13 5 81 -20 191 -71 28 -12 67 -28 87 -34
20 -7 52 -22 70 -34 18 -12 53 -33 78 -46 25 -14 66 -39 91 -57 25 -17 61 -40
80 -49 19 -10 36 -21 39 -25 3 -5 41 -34 85 -65 44 -32 82 -61 83 -66 2 -5 9
-9 15 -9 6 0 24 -12 39 -27 22 -21 28 -23 28 -10 0 9 -4 17 -9 17 -4 0 -19 10
-32 23 -27 27 -126 103 -170 130 -16 11 -29 23 -29 28 0 4 -44 34 -97 65 -54
31 -105 63 -113 69 -27 22 -233 123 -310 151 -41 16 -78 32 -81 37 -3 5 -25
13 -48 18 -23 5 -61 18 -84 29 -23 10 -62 24 -87 30 -25 6 -54 15 -65 20 -49
23 -273 66 -465 90 -116 14 -391 20 -525 10z m-680 -205 c-16 -8 -37 -14 -45
-14 -8 0 -1 6 15 14 17 7 37 13 45 13 8 0 2 -6 -15 -13z m-100 -34 c-53 -24
-92 -36 -82 -25 11 11 88 42 107 42 8 0 -3 -7 -25 -17z m-119 -48 c-44 -23
-96 -44 -96 -38 0 7 101 55 115 55 6 -1 -3 -8 -19 -17z m509 -27 c-24 -16
-105 -30 -105 -18 0 10 63 29 100 31 23 1 24 0 5 -13z m-715 -72 c-104 -55
-298 -178 -375 -237 -26 -20 -33 -23 -21 -9 22 25 244 174 331 221 33 19 69
41 80 51 17 16 39 24 80 28 6 1 -37 -23 -95 -54z m598 41 c-2 -3 -58 -23 -124
-44 -65 -22 -153 -53 -194 -70 -57 -24 -69 -26 -50 -11 14 11 30 20 35 20 6 0
40 15 75 33 36 18 92 39 125 46 33 7 69 17 80 21 22 9 61 13 53 5z m534 -20
c7 2 78 6 157 9 138 4 198 -4 185 -25 -3 -5 -13 -5 -22 0 -11 6 -35 5 -65 -2
-36 -8 -60 -7 -98 2 -27 7 -60 10 -72 7 -12 -3 -65 -8 -117 -11 -52 -3 -124
-10 -159 -15 -35 -5 -67 -8 -70 -8 -3 1 -13 -2 -21 -5 -8 -3 -49 -13 -90 -21
-41 -8 -86 -18 -100 -22 -16 -4 -21 -3 -15 3 6 5 39 18 75 28 36 10 70 22 76
27 6 4 14 5 17 1 4 -3 13 0 21 6 9 7 59 14 127 16 69 2 115 7 117 14 2 7 9 8
22 1 10 -5 25 -8 32 -5z m456 -11 c37 -10 25 -22 -20 -19 -77 5 -85 7 -48 15
19 4 37 8 40 9 3 0 15 -2 28 -5z m220 -40 c35 -8 81 -14 102 -14 21 0 42 -4
45 -10 3 -5 16 -10 29 -10 12 0 26 -4 32 -9 5 -5 27 -14 49 -21 22 -7 89 -33
149 -58 86 -36 105 -47 91 -54 -12 -7 -33 -3 -73 15 -32 14 -70 29 -85 33 -19
4 -25 9 -17 14 8 5 -5 11 -31 15 -24 4 -91 20 -149 36 -58 16 -110 27 -117 25
-6 -3 -31 5 -55 16 -25 13 -63 22 -90 22 -33 0 -48 4 -48 13 0 16 61 11 168
-13z m597 16 c3 -5 -1 -10 -9 -10 -8 0 -18 5 -21 10 -3 6 1 10 9 10 8 0 18 -4
21 -10z m55 -26 c0 -2 -7 -4 -15 -4 -8 0 -15 4 -15 10 0 5 7 7 15 4 8 -4 15
-8 15 -10z m90 -50 c0 -2 -9 0 -20 6 -11 6 -20 13 -20 16 0 2 9 0 20 -6 11 -6
20 -13 20 -16z m-2350 -13 c0 -10 -24 -21 -43 -21 -7 0 -3 7 7 15 22 17 36 19
36 6z m2107 -37 c-3 -3 -12 -4 -19 -1 -8 3 -5 6 6 6 11 1 17 -2 13 -5z m448
-60 c17 -14 21 -21 10 -15 -30 14 -61 40 -50 41 6 0 24 -12 40 -26z m-250 -68
c11 -8 17 -16 13 -16 -13 0 -88 44 -88 52 0 9 43 -12 75 -36z m-2930 -5 c-6
-4 -48 -41 -95 -81 -47 -40 -123 -110 -170 -154 l-85 -81 70 74 c69 72 270
251 283 251 3 0 2 -4 -3 -9z m3160 -111 c3 -5 2 -10 -4 -10 -5 0 -13 5 -16 10
-3 6 -2 10 4 10 5 0 13 -4 16 -10z m95 -14 c0 -2 -9 -2 -20 1 -11 3 -20 9 -20
15 0 5 9 4 20 -2 11 -6 20 -12 20 -14z m50 -31 c7 -8 18 -15 24 -15 16 0 89
-70 81 -78 -4 -4 -17 5 -30 21 -13 15 -28 27 -33 27 -5 0 -25 13 -43 30 -19
16 -29 30 -23 30 6 0 17 -7 24 -15z m-3670 -188 c0 -2 -17 -19 -37 -38 l-38
-34 34 38 c33 34 41 42 41 34z m-136 -164 c-83 -111 -99 -126 -45 -45 40 60
99 132 107 132 2 0 -26 -39 -62 -87z m-124 -173 c-6 -11 -13 -20 -16 -20 -2 0
0 9 6 20 6 11 13 20 16 20 2 0 0 -9 -6 -20z m-51 -80 c-17 -27 -33 -50 -35
-50 -7 0 51 100 58 100 4 0 -6 -22 -23 -50z m-104 -190 c-35 -69 -64 -119 -65
-112 0 14 33 81 87 180 60 107 45 63 -22 -68z m-74 -152 c-5 -13 -19 -43 -30
-68 -26 -55 -17 -15 10 46 20 45 36 62 20 22z m-90 -229 c-5 -13 -10 -19 -10
-12 -1 15 10 45 15 40 3 -2 0 -15 -5 -28z m-38 -129 c-9 -35 -19 -58 -21 -52
-4 13 28 125 34 119 3 -2 -3 -33 -13 -67z m-26 -92 c-3 -8 -6 -5 -6 6 -1 11 2
17 5 13 3 -3 4 -12 1 -19z m-20 -90 c-3 -7 -5 -2 -5 12 0 14 2 19 5 13 2 -7 2
-19 0 -25z m-10 -50 c-3 -7 -5 -2 -5 12 0 14 2 19 5 13 2 -7 2 -19 0 -25z
m-10 -40 c-3 -8 -6 -5 -6 6 -1 11 2 17 5 13 3 -3 4 -12 1 -19z m-10 -60 c-3
-7 -5 -2 -5 12 0 14 2 19 5 13 2 -7 2 -19 0 -25z m-10 -60 c-3 -7 -5 -2 -5 12
0 14 2 19 5 13 2 -7 2 -19 0 -25z m-30 -445 c-3 -10 -5 -2 -5 17 0 19 2 27 5
18 2 -10 2 -26 0 -35z"/>
<path d="M9655 7440 c3 -5 11 -10 16 -10 6 0 7 5 4 10 -3 6 -11 10 -16 10 -6
0 -7 -4 -4 -10z"/>
<path d="M9350 7175 c0 -2 19 -13 43 -24 23 -12 56 -30 72 -40 33 -22 45 -25
45 -13 0 5 -32 25 -70 45 -67 35 -90 43 -90 32z"/>
<path d="M9917 7099 c7 -7 15 -10 18 -7 3 3 -2 9 -12 12 -14 6 -15 5 -6 -5z"/>
<path d="M10230 7081 c0 -6 4 -13 10 -16 6 -3 7 1 4 9 -7 18 -14 21 -14 7z"/>
<path d="M10308 7000 c17 -16 34 -30 38 -30 4 0 -5 14 -21 30 -16 17 -33 30
-38 30 -5 0 5 -13 21 -30z"/>
<path d="M10133 6920 c14 -11 28 -20 32 -20 4 0 -4 9 -18 20 -14 11 -28 20
-32 20 -4 0 4 -9 18 -20z"/>
<path d="M10390 6926 c0 -2 8 -10 18 -17 15 -13 16 -12 3 4 -13 16 -21 21 -21
13z"/>
<path d="M10610 6506 c0 -11 64 -96 72 -96 13 0 9 12 -9 32 -9 10 -21 28 -27
40 -10 20 -36 37 -36 24z"/>
<path d="M10856 6030 c4 -14 13 -36 21 -50 l14 -25 -7 25 c-4 14 -13 36 -21
50 l-14 25 7 -25z"/>
<path d="M8298 1973 c7 -3 16 -2 19 1 4 3 -2 6 -13 5 -11 0 -14 -3 -6 -6z"/>
</g>
</svg>
