<svg xmlns="http://www.w3.org/2000/svg" viewBox="0 0 180.5 244.3" style="enable-background:new 0 0 180.5 244.3" xml:space="preserve"><style>.st4,.st7{fill:#fff;stroke:#0561fc;stroke-width:10.0091}.st7{fill:none}</style><g id="Layer_4"><path d="M5 244.3v-29.5c0-13 11.9-23.6 26.6-23.6h116.8c14.7 0 26.6 10.6 26.6 23.6v29.5" style="fill:#c5e1f9;stroke:#0561fc;stroke-width:10.0091"/><path class="st4" d="M113.1 189.2c0 12.4-10 22.5-22.4 22.5h-1.4c-12.4 0-22.4-10.1-22.4-22.5v-57.6c0-12.4 10-22.5 22.4-22.5h1.4c12.4 0 22.4 10.1 22.4 22.5v57.6zM161.5 121c0 6.5-5.3 11.8-11.7 11.8h-1c-6.5 0-11.7-5.3-11.7-11.8V99.4c0-6.5 5.3-11.8 11.7-11.8h1c6.5 0 11.7 5.3 11.7 11.8V121z"/><path class="st4" d="M147.7 115.5c0 32.9-26.6 59.6-59.4 59.6s-59.4-26.7-59.4-59.6V67.8c0-32.9 26.6-59.6 59.4-59.6s59.4 26.7 59.4 59.6v47.7z"/><path class="st4" d="M88.3 157.5c-23.1 0-41.9-18.9-41.9-42"/><path d="M165.4 37c1.1-3 1.7-6.1 1.7-9.5V5h-100c-9.6 0-18.1 5-23 12.5h-9.4c-11.8 0-21.3 9.6-21.3 21.4v77.7h15V70.1c0-8.3 6.7-15 15-15h1.8c12.9 14.8 34.5 24.5 59 24.5 33.5 0 61.7-18.1 69.5-42.6h-8.3z" style="fill:#9ac7f7;stroke:#0561fc;stroke-width:10.0091"/><path class="st4" d="M28.9 87.8c-5.9.6-15.5 5.6-15.5 11.6V121c0 6.1 9.6 11 15.5 11.6V87.8zM98.5 82.1l7.5 38.8H91"/><path class="st7" d="M67.3 102.1h12.5M114.8 102.1h12.5"/></g></svg>